<svg version="1.1" id="Layer_1" xmlns="http://www.w3.org/2000/svg" xmlns:xlink="http://www.w3.org/1999/xlink" x="0px" y="0px"
	 width="100%" viewBox="0 0 132 56" enable-background="new 0 0 132 56" xml:space="preserve">
<path fill="#F7F7F6" opacity="1.000000" stroke="none" 
	d="
M85.000000,57.000000 
	C81.969406,57.000000 78.938812,57.000000 75.562798,56.742920 
	C75.478554,55.993698 75.739738,55.501553 76.308113,54.977879 
	C77.087631,54.599297 77.559959,54.252239 78.307823,53.866707 
	C79.066162,53.556980 79.548965,53.285728 80.320740,52.978897 
	C80.733162,52.291103 80.856598,51.638893 80.868408,50.678493 
	C79.463608,49.568264 78.170433,48.766216 76.651154,47.965591 
	C76.425041,47.967014 75.974426,48.005146 75.577789,48.001495 
	C74.123955,48.005299 73.066765,48.012753 71.965370,47.720867 
	C70.621140,47.614159 69.321114,47.806789 67.923775,47.832760 
	C67.534370,47.775143 67.242271,47.884190 66.704437,47.993755 
	C66.458702,47.994278 65.967422,48.007576 65.724243,47.967457 
	C65.481071,47.927338 65.005806,47.795853 64.929382,47.474304 
	C63.568405,47.103439 62.283863,47.054123 60.627525,46.999107 
	C57.583614,46.694004 54.570789,45.126854 52.631580,48.955967 
	C51.512753,48.984695 50.766861,48.999645 49.685490,49.059456 
	C47.405949,50.581306 47.778419,51.502266 50.358299,51.973251 
	C51.105335,51.971725 51.531990,51.967243 52.258381,52.095085 
	C53.952183,51.924828 55.337315,51.558090 56.746197,51.361916 
	C57.128769,51.308647 57.583019,51.770153 58.098137,52.387775 
	C61.169857,53.186970 64.137466,53.746666 67.129257,53.949062 
	C69.269966,54.093880 71.227905,54.037750 71.000000,57.000000 
	C53.979103,57.000000 36.958210,57.000000 19.553593,56.732552 
	C19.479904,56.009113 19.789940,55.553123 20.417439,54.947472 
	C29.408787,51.344212 34.121693,45.576065 32.041275,35.714222 
	C31.738636,34.279610 31.912754,32.744423 31.871410,30.892151 
	C31.473145,29.969585 31.069725,29.410650 30.555401,28.597424 
	C29.597105,27.622555 28.749716,26.901976 27.949230,25.897797 
	C28.008074,25.422932 28.020014,25.231667 28.347218,25.029915 
	C29.160959,24.689587 29.659441,24.359745 30.476677,23.982388 
	C31.874525,23.056892 32.953617,22.178915 34.313515,21.263016 
	C34.781311,21.198299 34.968300,21.171505 35.366444,21.319288 
	C36.097652,21.962456 36.617706,22.431046 37.131443,22.913826 
	C37.125122,22.928015 37.095356,22.936913 37.048134,23.359776 
	C36.802082,27.025000 36.603249,30.267357 36.552940,33.771660 
	C38.751514,35.864460 40.801567,37.695316 42.851620,39.526173 
	C43.391537,39.324615 43.931450,39.123058 44.471367,38.921501 
	C44.613186,36.324196 44.755009,33.726891 45.017029,30.861443 
	C45.445812,29.882370 45.754395,29.171438 46.434982,28.392471 
	C47.306675,28.247448 47.806366,28.170460 48.471321,28.244644 
	C48.838448,28.621058 48.994240,28.874603 49.087112,29.563808 
	C48.820610,31.072433 48.187962,32.251526 48.392952,33.260429 
	C49.014286,36.318520 49.070675,40.850452 50.992073,41.960175 
	C53.731476,43.542347 58.098209,43.252956 61.424820,42.406715 
	C62.755283,42.068268 63.282204,38.154564 63.947250,35.803890 
	C64.250275,34.732822 63.912052,33.497181 64.019127,32.350609 
	C64.316185,29.169827 62.996983,27.890575 59.746342,27.932781 
	C57.187038,27.966007 54.619255,27.346376 52.046104,26.766659 
	C52.027699,26.349798 52.018429,26.183008 52.167038,25.730419 
	C53.162189,24.450726 53.999462,23.456833 55.323139,21.885557 
	C52.048008,20.253582 49.045429,18.757418 45.714916,17.163513 
	C44.931171,17.075777 44.475357,17.085781 43.981323,16.789211 
	C43.908737,16.279554 43.874367,16.076477 43.840462,15.659344 
	C43.826580,15.149430 43.727047,14.885730 43.588020,14.383125 
	C43.593376,13.389526 43.553036,12.666983 43.601433,11.555645 
	C43.676456,9.838346 43.662746,8.509841 43.767387,6.819575 
	C43.831177,5.960248 43.776619,5.462681 43.748260,4.648029 
	C43.815292,3.909726 43.856121,3.488507 44.225296,3.010176 
	C45.035763,2.302043 45.517883,1.651022 46.000000,1.000001 
	C74.888260,1.000000 103.776520,1.000000 133.000000,1.000000 
	C133.000000,9.684684 133.000000,18.373680 132.561615,27.532711 
	C130.857498,28.077604 129.591751,28.152460 127.796585,28.258625 
	C127.796585,31.640070 127.796585,34.671406 127.796585,38.293282 
	C122.956276,34.632851 123.103867,25.267714 113.589653,28.839449 
	C114.049843,33.533516 114.522774,38.357502 114.997177,43.538963 
	C115.003265,44.611668 115.007881,45.326889 114.947060,46.252380 
	C114.807487,46.754078 114.665161,47.007153 114.107285,47.132286 
	C113.172409,46.650959 112.584877,46.259201 111.997864,45.497322 
	C111.983849,44.387138 111.969330,43.647076 111.934563,42.492741 
	C109.931183,41.718666 107.872604,41.576012 105.991554,40.922409 
	C104.746269,40.489708 103.755554,39.324356 102.650871,38.487000 
	C102.934311,38.069397 103.217758,37.651791 103.501198,37.234184 
	C105.982986,37.032650 108.464767,36.831116 110.946548,36.629581 
	C110.988899,35.992599 111.031258,35.355618 111.073608,34.718636 
	C109.280960,34.477364 107.437416,34.415264 105.715195,33.926064 
	C104.719162,33.643139 103.918663,32.671871 103.030159,32.010391 
	C103.915779,31.342144 104.719261,30.301079 105.704300,30.084028 
	C107.693924,29.645624 109.782173,29.654758 111.829742,29.479317 
	C111.783226,29.077412 111.736710,28.675507 111.690201,28.273602 
	C107.632217,28.273602 103.574242,28.273602 98.999794,28.273602 
	C98.999794,31.951351 99.202621,35.420887 98.945969,38.856102 
	C98.656654,42.728462 99.992287,44.536541 104.017876,44.021278 
	C104.990578,43.896774 106.006477,44.109703 106.889290,44.545815 
	C102.681244,45.244160 98.588753,45.655560 94.488449,45.759922 
	C94.015259,45.771961 93.498596,44.075722 93.318436,42.972618 
	C95.032890,40.601192 96.431000,38.428658 98.333168,35.472862 
	C94.081909,35.472862 91.605560,35.472862 89.129211,35.472862 
	C89.001465,35.895569 88.873718,36.318279 88.745972,36.740986 
	C90.137527,37.474106 91.529083,38.207222 93.157883,39.065331 
	C90.550537,41.803898 87.202927,42.133938 85.671799,39.790546 
	C84.228096,37.580963 84.844261,34.025497 84.554283,31.062096 
	C87.248878,30.847044 89.951065,30.416391 92.634750,30.510942 
	C93.912270,30.555952 95.154556,31.600794 97.205086,32.565449 
	C95.473747,28.108561 90.836700,26.660490 84.646965,28.079380 
	C79.042145,29.364183 81.242195,34.114868 81.061882,37.554520 
	C80.776802,42.992813 84.780914,43.838875 88.913879,44.512211 
	C87.099701,46.280239 83.983627,46.704624 85.034973,50.326622 
	C85.018661,50.526783 85.025864,50.928356 84.890533,51.247356 
	C84.836807,53.377571 84.918404,55.188786 85.000000,57.000000 
M70.109566,33.188580 
	C69.627571,30.829372 70.519577,29.849417 72.983276,29.957422 
	C74.906769,30.041748 76.847443,29.734114 78.780487,29.600653 
	C78.737434,29.198812 78.694382,28.796970 78.651321,28.395130 
	C74.874191,28.395130 71.097054,28.395130 66.676651,28.395130 
	C68.066101,33.757774 65.126434,39.230583 69.493591,45.084328 
	C69.889069,41.584175 70.136414,39.395069 70.366760,37.356403 
	C73.339447,37.009453 75.943413,36.705540 78.547379,36.401623 
	C78.503128,36.117867 78.458878,35.834110 78.414635,35.550354 
	C75.777298,35.016827 73.139969,34.483295 70.109566,33.188580 
z"/>
<path fill="#F8F6F6" opacity="1.000000" stroke="none" 
	d="
M1.000000,32.000000 
	C1.000000,21.764977 1.000000,11.529954 1.000000,1.000000 
	C6.015390,1.000000 11.036497,1.000000 16.529675,1.466400 
	C17.316702,6.960171 17.631657,11.987541 18.112616,17.065533 
	C18.278618,17.116154 18.625343,17.132271 18.709667,17.370247 
	C18.853439,17.765787 18.912888,17.923349 18.964239,18.465544 
	C18.950228,19.363832 18.944317,19.877487 18.672411,20.291948 
	C18.252987,20.081949 18.099556,19.971144 17.868935,19.702118 
	C17.539230,19.661354 17.286716,19.778812 16.853252,20.067116 
	C16.381863,20.416189 16.157621,20.656250 15.729594,20.999296 
	C15.268772,21.343285 15.077931,21.646122 14.516174,21.969507 
	C10.256228,24.032749 6.367198,26.075441 2.307199,28.207933 
	C3.715162,30.105392 4.394078,31.020340 4.666030,31.954174 
	C3.172712,31.982038 2.086356,31.991018 1.000000,32.000000 
z"/>
<path fill="#F7F7F6" opacity="1.000000" stroke="none" 
	d="
M1.000000,32.468678 
	C2.086356,31.991018 3.172712,31.982038 4.645848,31.963890 
	C5.032629,31.954721 5.047552,31.914661 5.090201,32.271999 
	C6.125199,33.071770 7.117547,33.514202 8.475121,33.978775 
	C11.557502,34.998981 14.274658,35.997040 17.011108,37.309776 
	C17.396128,38.099411 17.761852,38.574375 18.085672,39.512497 
	C18.029181,45.650440 18.014589,51.325218 18.000000,57.000000 
	C12.393053,57.000000 6.786106,57.000000 1.000000,57.000000 
	C1.000000,48.979794 1.000000,40.958576 1.000000,32.468678 
z"/>
<path fill="#818181" opacity="1.000000" stroke="none" 
	d="
M114.995697,43.181484 
	C114.522774,38.357502 114.049843,33.533516 113.589653,28.839449 
	C123.103867,25.267714 122.956276,34.632851 127.796585,38.293282 
	C127.796585,34.671406 127.796585,31.640070 127.796585,28.258625 
	C129.591751,28.152460 130.857498,28.077604 132.561615,28.001373 
	C133.000000,32.689255 133.000000,37.378513 132.606827,42.546425 
	C128.589005,44.785900 125.823624,44.502224 123.978157,40.303204 
	C122.814705,37.655979 120.947113,35.318222 119.395378,32.841648 
	C118.914108,32.999058 118.432846,33.156467 117.951576,33.313881 
	C117.951576,36.508389 117.951576,39.702896 117.582047,42.939354 
	C116.473579,43.048027 115.734642,43.114758 114.995697,43.181484 
z"/>
<path fill="#F9F7F3" opacity="1.000000" stroke="none" 
	d="
M21.000000,1.000000 
	C27.354399,1.000000 33.708797,1.000000 40.537857,1.378391 
	C41.040173,2.260484 41.067833,2.764187 40.937744,3.514846 
	C40.138195,4.484803 39.496395,5.207804 38.494244,5.946816 
	C36.383163,6.986723 34.632435,8.010618 32.480820,9.024673 
	C31.010860,9.032136 29.941786,9.049440 28.663013,9.031250 
	C28.453312,8.995756 28.031006,8.945789 28.015440,8.971136 
	C27.999874,8.996483 28.056587,8.978521 27.975817,8.724392 
	C27.602705,8.283132 27.310362,8.096002 26.883947,7.619644 
	C25.471016,6.288158 24.192156,5.245900 22.814678,3.926545 
	C22.380856,3.467437 22.045654,3.285423 21.438572,3.048905 
	C20.815893,2.878839 20.465096,2.763277 20.132420,2.478113 
	C20.150539,2.308512 20.145050,1.967424 20.340893,1.860376 
	C20.764137,1.547112 20.918558,1.296003 21.000000,1.000000 
z"/>
<path fill="#FAF5F3" opacity="1.000000" stroke="none" 
	d="
M133.000000,54.000000 
	C133.000000,54.985661 133.000000,55.971325 133.000000,57.000000 
	C123.979141,57.000000 114.958229,57.000000 105.468765,56.635406 
	C105.014244,55.543880 105.028282,54.816952 105.070152,53.895733 
	C105.097992,53.701447 105.160660,53.315826 105.475449,53.277069 
	C106.212341,53.260216 106.634460,53.282124 107.184372,53.414623 
	C107.593475,53.375153 107.874771,53.225086 108.389389,53.043732 
	C108.622719,53.012447 109.088295,52.942280 109.313850,52.942802 
	C109.539406,52.943329 109.978493,52.839840 110.211349,52.886112 
	C110.444206,52.932384 110.918869,52.944511 111.216415,52.952431 
	C111.712326,52.955593 111.910706,52.950832 112.307281,52.965458 
	C112.505493,52.984844 112.902397,52.951454 113.208145,52.975567 
	C113.922173,53.021500 114.330460,53.043320 115.057007,53.053955 
	C115.750015,51.364895 116.124756,49.687019 116.574249,48.037868 
	C116.649010,48.066597 116.806534,48.095634 116.868668,48.377533 
	C117.262642,49.106884 117.594490,49.554333 117.978546,50.340134 
	C118.643944,51.427872 119.257141,52.177258 120.200218,52.934128 
	C120.749657,52.928082 120.969215,52.914555 121.391586,52.933990 
	C121.594391,52.966957 121.995148,53.057842 122.201111,53.339005 
	C123.556831,53.717152 124.706596,53.814133 126.172119,53.916504 
	C126.994423,53.608078 127.500969,53.294262 128.250458,53.006027 
	C128.493423,53.031612 128.975479,52.951813 129.347458,53.010689 
	C130.469589,53.056511 131.219742,53.043457 131.966797,53.081722 
	C131.963699,53.133041 131.931198,53.230591 132.066483,53.412376 
	C132.422653,53.818298 132.688721,53.953579 133.000000,54.000000 
z"/>
<path fill="#F8F7F6" opacity="1.000000" stroke="none" 
	d="
M117.951576,42.897404 
	C117.951576,39.702896 117.951576,36.508389 117.951576,33.313881 
	C118.432846,33.156467 118.914108,32.999058 119.395378,32.841648 
	C120.947113,35.318222 122.814705,37.655979 123.978157,40.303204 
	C125.823624,44.502224 128.589005,44.785900 132.606827,43.012543 
	C133.000000,43.750000 133.000000,44.500000 132.778000,45.612045 
	C132.556000,45.974087 132.119003,46.056850 131.775574,46.014961 
	C130.216522,46.147308 128.958832,46.178711 127.793114,46.522228 
	C124.117897,47.605244 119.050987,45.791573 117.951576,42.897404 
z"/>
<path fill="#FEF0F0" opacity="1.000000" stroke="none" 
	d="
M68.021080,47.999424 
	C69.321114,47.806789 70.621140,47.614159 71.945053,47.956722 
	C71.968933,48.491917 72.027626,48.961781 72.015320,49.347763 
	C72.014824,50.507076 72.026627,51.280415 72.009422,52.275017 
	C71.980423,52.496288 72.021408,52.940727 72.049713,53.234035 
	C72.367188,53.868382 72.656342,54.209419 72.945503,54.550461 
	C73.304749,54.094883 73.664001,53.639309 74.286591,53.213448 
	C75.020699,53.455589 75.491463,53.668018 75.973114,54.162643 
	C75.989647,54.633034 75.995277,54.821220 76.000916,55.009407 
	C75.739738,55.501553 75.478554,55.993698 75.108688,56.742920 
	C73.933327,57.000000 72.866661,57.000000 71.399994,57.000000 
	C71.227905,54.037750 69.269966,54.093880 67.129257,53.949062 
	C64.137466,53.746666 61.169857,53.186970 58.382095,52.407646 
	C59.394291,51.985176 60.216282,51.935215 61.399956,51.821053 
	C63.254059,50.608604 66.845444,51.814888 65.967422,48.007576 
	C65.967422,48.007576 66.458702,47.994278 66.972458,47.996708 
	C67.664513,47.999237 67.842796,47.999332 68.021080,47.999424 
z"/>
<path fill="#F7F7F6" opacity="1.000000" stroke="none" 
	d="
M103.000000,57.000000 
	C97.977905,57.000000 92.955818,57.000000 87.514290,56.672745 
	C87.732803,55.235912 88.370750,54.126339 89.399780,53.011665 
	C90.572792,52.974594 91.354706,52.942631 92.345474,52.924450 
	C92.554314,52.938236 92.972443,52.918629 93.015244,53.218369 
	C95.419357,53.853943 97.944351,56.227150 100.258049,53.014393 
	C100.499947,53.069664 100.977272,53.205429 101.033195,53.492802 
	C101.689087,54.189098 102.289055,54.598026 102.977028,55.183205 
	C103.065033,55.359455 103.115555,55.750206 103.071457,56.061249 
	C103.018250,56.581528 103.009125,56.790764 103.000000,57.000000 
z"/>
<path fill="#C45F57" opacity="1.000000" stroke="none" 
	d="
M18.250000,57.000000 
	C18.014589,51.325218 18.029181,45.650440 18.317944,39.526375 
	C18.592117,39.077095 19.043442,39.190987 19.028103,39.645412 
	C19.375168,45.098938 19.737572,50.098038 20.099976,55.097137 
	C19.789940,55.553123 19.479904,56.009113 19.084934,56.732552 
	C19.000000,57.000000 18.500000,57.000000 18.250000,57.000000 
z"/>
<path fill="#FEEEEC" opacity="1.000000" stroke="none" 
	d="
M89.008698,53.016769 
	C88.370750,54.126339 87.732803,55.235912 87.047424,56.672745 
	C86.555557,57.000000 86.111107,57.000000 85.333328,57.000000 
	C84.918404,55.188786 84.836807,53.377571 85.223946,51.287407 
	C86.133392,51.086372 86.574104,51.164284 87.157639,51.472424 
	C87.869873,52.140690 88.439278,52.578728 89.008698,53.016769 
z"/>
<path fill="#CF8355" opacity="1.000000" stroke="none" 
	d="
M20.145050,1.967425 
	C20.145050,1.967424 20.150539,2.308512 20.021486,2.787248 
	C19.614122,3.856079 19.335814,4.446174 19.051289,5.494535 
	C19.129728,9.647115 19.214382,13.341428 19.131695,17.067425 
	C18.964354,17.099112 18.625343,17.132271 18.625343,17.132271 
	C18.625343,17.132271 18.278618,17.116154 18.133284,16.597940 
	C17.991966,11.053151 17.995983,6.026576 18.000000,1.000000 
	C18.000000,1.000000 18.500000,1.000000 18.830017,1.263351 
	C19.488371,1.673609 19.816711,1.820517 20.145050,1.967425 
z"/>
<path fill="#FFEED2" opacity="1.000000" stroke="none" 
	d="
M17.750000,1.000000 
	C17.995983,6.026576 17.991966,11.053151 17.967281,16.547319 
	C17.631657,11.987541 17.316702,6.960171 17.000874,1.466400 
	C17.000000,1.000000 17.500000,1.000000 17.750000,1.000000 
z"/>
<path fill="#FDF4E3" opacity="1.000000" stroke="none" 
	d="
M41.095493,3.267889 
	C41.067833,2.764187 41.040173,2.260484 41.006256,1.378391 
	C42.388889,1.000000 43.777779,1.000000 45.583336,1.000001 
	C45.517883,1.651022 45.035763,2.302043 44.147556,3.076511 
	C43.741467,3.199958 43.539505,3.165931 43.605167,2.988901 
	C43.455959,2.887465 43.241093,2.963060 42.701431,3.044781 
	C41.949589,3.123235 41.522541,3.195561 41.095493,3.267889 
z"/>
<path fill="#D0706D" opacity="1.000000" stroke="none" 
	d="
M132.119003,46.056850 
	C132.119003,46.056850 132.556000,45.974087 132.778000,45.987045 
	C133.000000,48.042316 133.000000,50.084637 132.725540,52.587475 
	C132.277802,53.108860 132.104507,53.169727 131.931198,53.230591 
	C131.931198,53.230591 131.963699,53.133041 131.945160,52.810410 
	C131.908554,52.307297 131.890488,52.126808 131.910141,51.677166 
	C131.721710,50.955788 131.495544,50.503571 131.185745,49.708187 
	C131.441086,48.262299 131.780045,47.159573 132.119003,46.056850 
z"/>
<path fill="#FFE7E3" opacity="1.000000" stroke="none" 
	d="
M103.333252,57.000000 
	C103.009125,56.790764 103.018250,56.581528 103.323410,55.961704 
	C103.814476,55.045547 104.009499,54.539978 104.414421,54.041500 
	C104.624321,54.048592 105.042313,54.090019 105.042313,54.090019 
	C105.028282,54.816952 105.014244,55.543880 105.000107,56.635406 
	C104.555504,57.000000 104.111000,57.000000 103.333252,57.000000 
z"/>
<path fill="#FFEDDC" opacity="1.000000" stroke="none" 
	d="
M20.340893,1.860377 
	C19.816711,1.820517 19.488371,1.673609 19.080017,1.263351 
	C19.444445,1.000000 19.888889,1.000000 20.666668,1.000000 
	C20.918558,1.296003 20.764137,1.547112 20.340893,1.860377 
z"/>
<path fill="#F1CDD3" opacity="1.000000" stroke="none" 
	d="
M132.066483,53.412376 
	C132.104507,53.169727 132.277802,53.108860 132.725540,53.023998 
	C133.000000,53.000000 133.000000,53.500000 133.000000,53.750000 
	C132.688721,53.953579 132.422653,53.818298 132.066483,53.412376 
z"/>
<path fill="#EB4137" opacity="1.000000" stroke="none" 
	d="
M16.991814,36.995102 
	C14.274658,35.997040 11.557502,34.998981 8.330245,33.683254 
	C6.895947,32.881947 5.971749,32.398304 5.047551,31.914661 
	C5.047552,31.914661 5.032629,31.954721 5.052811,31.945004 
	C4.394078,31.020340 3.715162,30.105392 2.307199,28.207933 
	C6.367198,26.075441 10.256228,24.032749 14.761700,21.881649 
	C15.585286,21.501543 15.792432,21.229843 15.999577,20.958143 
	C16.157621,20.656250 16.381863,20.416189 16.798719,20.187260 
	C16.925137,20.136560 17.004763,20.388144 17.105783,20.511980 
	C17.206804,20.635817 17.660416,20.680367 17.660416,20.680367 
	C17.660416,20.680367 18.017899,20.382996 18.045769,20.246040 
	C18.073639,20.109085 17.946125,19.860340 17.946125,19.860340 
	C18.099556,19.971144 18.252987,20.081949 18.861187,20.552891 
	C22.178082,22.669149 25.040203,24.425274 27.902327,26.181396 
	C28.749716,26.901976 29.597105,27.622555 30.358257,28.637787 
	C30.272022,28.932442 30.013868,29.241743 29.660892,29.238472 
	C25.202547,31.821835 21.097179,34.408470 16.991814,36.995102 
z"/>
<path fill="#EC4137" opacity="1.000000" stroke="none" 
	d="
M20.417440,54.947472 
	C19.737572,50.098038 19.375168,45.098938 19.338589,39.472496 
	C23.108099,36.551453 26.551783,34.257744 30.230663,31.871655 
	C30.932659,31.604774 31.399460,31.430277 31.866261,31.255777 
	C31.912754,32.744423 31.738636,34.279610 32.041275,35.714222 
	C34.121693,45.576065 29.408787,51.344212 20.417440,54.947472 
z"/>
<path fill="#FEEEEC" opacity="1.000000" stroke="none" 
	d="
M100.016144,52.959122 
	C97.944351,56.227150 95.419357,53.853943 93.042358,52.888275 
	C92.839134,51.441200 92.651596,50.623959 92.464066,49.806717 
	C92.259026,50.194729 92.053993,50.582741 91.459427,50.980339 
	C90.029922,50.989067 88.989937,50.988213 87.807533,50.683746 
	C86.793831,50.295578 85.922562,50.211021 85.051285,50.126465 
	C83.983627,46.704624 87.099701,46.280239 89.260223,44.435936 
	C90.797707,43.732178 91.899895,43.451843 93.002090,43.171509 
	C93.498596,44.075722 94.015259,45.771961 94.488449,45.759922 
	C98.588753,45.655560 102.681244,45.244160 107.259552,44.480358 
	C109.146950,43.660038 110.550873,43.283524 111.954803,42.907013 
	C111.969330,43.647076 111.983849,44.387138 111.718643,45.563156 
	C111.250145,46.026978 111.061363,46.054840 110.647888,46.089588 
	C110.423203,46.096474 109.982216,46.184025 109.682884,46.307358 
	C109.215126,47.277710 109.046700,48.124725 108.626984,48.994164 
	C108.208359,49.033539 108.041023,49.050495 107.651657,49.046692 
	C107.429634,49.025928 106.984451,48.997272 106.605232,48.991318 
	C105.466492,48.996910 104.706970,49.008461 103.688484,49.078354 
	C103.226952,49.420788 103.024391,49.704884 102.638519,49.989216 
	C102.455215,49.989452 102.088593,49.988548 101.849709,49.736656 
	C101.079269,50.642883 100.547707,51.801003 100.016144,52.959122 
z"/>
<path fill="#828181" opacity="1.000000" stroke="none" 
	d="
M93.318436,42.972618 
	C91.899895,43.451843 90.797707,43.732178 89.349174,44.088783 
	C84.780914,43.838875 80.776802,42.992813 81.061882,37.554520 
	C81.242195,34.114868 79.042145,29.364183 84.646965,28.079380 
	C90.836700,26.660490 95.473747,28.108561 97.205086,32.565449 
	C95.154556,31.600794 93.912270,30.555952 92.634750,30.510942 
	C89.951065,30.416391 87.248878,30.847044 84.554283,31.062096 
	C84.844261,34.025497 84.228096,37.580963 85.671799,39.790546 
	C87.202927,42.133938 90.550537,41.803898 93.157883,39.065331 
	C91.529083,38.207222 90.137527,37.474106 88.745972,36.740986 
	C88.873718,36.318279 89.001465,35.895569 89.129211,35.472862 
	C91.605560,35.472862 94.081909,35.472862 98.333168,35.472862 
	C96.431000,38.428658 95.032890,40.601192 93.318436,42.972618 
z"/>
<path fill="#818181" opacity="1.000000" stroke="none" 
	d="
M52.055241,27.016731 
	C54.619255,27.346376 57.187038,27.966007 59.746342,27.932781 
	C62.996983,27.890575 64.316185,29.169827 64.019127,32.350609 
	C63.912052,33.497181 64.250275,34.732822 63.947250,35.803890 
	C63.282204,38.154564 62.755283,42.068268 61.424820,42.406715 
	C58.098209,43.252956 53.731476,43.542347 50.992073,41.960175 
	C49.070675,40.850452 49.014286,36.318520 48.392952,33.260429 
	C48.187962,32.251526 48.820610,31.072433 49.368004,29.429270 
	C50.462246,28.263830 51.258743,27.640280 52.055241,27.016731 
M51.995453,33.668491 
	C52.329514,36.108303 52.663574,38.548115 53.041225,41.306316 
	C55.207493,40.699348 56.432518,40.077507 57.664188,40.064053 
	C61.141327,40.026070 61.333466,37.672138 60.911606,35.327763 
	C60.584110,33.507805 59.725231,30.528479 58.697178,30.345806 
	C56.422096,29.941551 52.846729,28.383438 51.995453,33.668491 
z"/>
<path fill="#818081" opacity="1.000000" stroke="none" 
	d="
M111.934555,42.492737 
	C110.550873,43.283524 109.146950,43.660038 107.372772,44.102005 
	C106.006477,44.109703 104.990578,43.896774 104.017876,44.021278 
	C99.992287,44.536541 98.656654,42.728462 98.945969,38.856102 
	C99.202621,35.420887 98.999794,31.951351 98.999794,28.273602 
	C103.574242,28.273602 107.632217,28.273602 111.690201,28.273602 
	C111.736710,28.675507 111.783226,29.077412 111.829742,29.479317 
	C109.782173,29.654758 107.693924,29.645624 105.704300,30.084028 
	C104.719261,30.301079 103.915779,31.342144 103.030159,32.010391 
	C103.918663,32.671871 104.719162,33.643139 105.715195,33.926064 
	C107.437416,34.415264 109.280960,34.477364 111.073608,34.718636 
	C111.031258,35.355618 110.988899,35.992599 110.946548,36.629581 
	C108.464767,36.831116 105.982986,37.032650 103.501198,37.234184 
	C103.217758,37.651791 102.934311,38.069397 102.650871,38.487000 
	C103.755554,39.324356 104.746269,40.489708 105.991554,40.922409 
	C107.872604,41.576012 109.931183,41.718666 111.934555,42.492737 
z"/>
<path fill="#F49422" opacity="1.000000" stroke="none" 
	d="
M32.881706,9.034513 
	C34.632435,8.010618 36.383163,6.986723 38.848328,5.969390 
	C40.660336,6.337101 41.757904,6.698251 43.051872,7.102855 
	C43.248272,7.146309 43.649040,7.181336 43.649040,7.181336 
	C43.662746,8.509841 43.676456,9.838346 43.294220,11.676836 
	C42.580601,13.668883 42.262932,15.150946 41.702187,16.835735 
	C40.959839,17.696363 40.460560,18.354261 39.983849,19.010246 
	C40.006416,19.008335 40.020107,18.965162 39.663208,18.986275 
	C37.974445,19.400505 36.642578,19.793621 34.982346,19.914614 
	C34.178047,16.085314 33.702114,12.528137 33.135368,8.961378 
	C33.044548,8.951795 32.881706,9.034513 32.881706,9.034513 
z"/>
<path fill="#F9BA19" opacity="1.000000" stroke="none" 
	d="
M46.042847,17.261253 
	C49.045429,18.757418 52.048008,20.253582 55.323139,21.885557 
	C53.999462,23.456833 53.162189,24.450726 51.837906,25.756416 
	C50.327522,26.457136 49.304142,26.846058 47.866253,27.165337 
	C46.614948,27.094322 45.778160,27.092949 44.591904,27.038330 
	C41.860077,25.635693 39.477715,24.286303 37.095356,22.936913 
	C37.095356,22.936913 37.125122,22.928015 37.277824,22.629944 
	C38.293724,21.209637 39.156914,20.087400 40.020107,18.965162 
	C40.020107,18.965162 40.006416,19.008335 40.318069,19.164404 
	C41.729504,18.853851 42.829277,18.387232 44.219231,17.945955 
	C45.020554,17.734617 45.531700,17.497936 46.042847,17.261253 
z"/>
<path fill="#808180" opacity="1.000000" stroke="none" 
	d="
M70.306107,33.569172 
	C73.139969,34.483295 75.777298,35.016827 78.414635,35.550354 
	C78.458878,35.834110 78.503128,36.117867 78.547379,36.401623 
	C75.943413,36.705540 73.339447,37.009453 70.366760,37.356403 
	C70.136414,39.395069 69.889069,41.584175 69.493591,45.084328 
	C65.126434,39.230583 68.066101,33.757774 66.676651,28.395130 
	C71.097054,28.395130 74.874191,28.395130 78.651321,28.395130 
	C78.694382,28.796970 78.737434,29.198812 78.780487,29.600653 
	C76.847443,29.734114 74.906769,30.041748 72.983276,29.957422 
	C70.519577,29.849417 69.627571,30.829372 70.306107,33.569172 
z"/>
<path fill="#FCD309" opacity="1.000000" stroke="none" 
	d="
M44.896832,31.129585 
	C44.755009,33.726891 44.613186,36.324196 44.471367,38.921501 
	C43.931450,39.123058 43.391537,39.324615 42.851620,39.526173 
	C40.801567,37.695316 38.751514,35.864460 36.750511,33.423248 
	C37.007339,31.253321 37.215126,29.693752 37.497395,27.575121 
	C40.299805,28.921314 42.598320,30.025450 44.896832,31.129585 
z"/>
<path fill="#FFF0D7" opacity="1.000000" stroke="none" 
	d="
M28.872713,9.066744 
	C29.941786,9.049440 31.010860,9.032136 32.480820,9.024673 
	C32.881706,9.034513 33.044548,8.951795 33.053555,9.415577 
	C33.385944,13.686551 33.709328,17.493744 34.032707,21.300938 
	C32.953617,22.178915 31.874525,23.056892 30.343359,23.759104 
	C29.625618,23.370111 29.359951,23.156883 29.037403,22.619236 
	C28.927992,21.857775 28.875463,21.420731 28.894928,20.529510 
	C28.935518,16.405804 28.904116,12.736274 28.872713,9.066744 
z"/>
<path fill="#FEEEEC" opacity="1.000000" stroke="none" 
	d="
M131.775574,46.014961 
	C131.780045,47.159573 131.441086,48.262299 131.035645,49.646881 
	C130.969162,49.928745 130.647842,49.930511 130.427765,49.948021 
	C129.910843,49.972542 129.613937,49.975677 129.196472,49.725838 
	C128.746475,49.350159 128.416977,49.223576 127.742523,49.072632 
	C126.936554,49.038891 126.475540,49.029507 125.674683,49.089851 
	C125.043732,49.763294 124.752617,50.367016 124.312805,50.894043 
	C123.928329,50.764778 123.717621,50.815777 123.420670,50.695957 
	C123.029129,50.149422 122.748932,49.877270 122.268234,49.429520 
	C121.727005,49.175720 121.386276,49.097515 120.810600,49.004093 
	C120.575661,48.988873 120.106384,48.950352 120.065010,48.984657 
	C120.023636,49.018967 119.922966,49.056675 119.821503,48.787842 
	C119.185547,48.368622 118.651039,48.218235 117.788712,48.059654 
	C117.242775,48.066181 117.024651,48.080906 116.806534,48.095634 
	C116.806534,48.095634 116.649010,48.066597 116.395958,47.758461 
	C115.766106,46.980923 115.389297,46.511520 115.012497,46.042114 
	C115.007881,45.326889 115.003265,44.611668 114.997177,43.538963 
	C115.734642,43.114758 116.473579,43.048027 117.582047,42.939354 
	C119.050987,45.791573 124.117897,47.605244 127.793114,46.522228 
	C128.958832,46.178711 130.216522,46.147308 131.775574,46.014961 
z"/>
<path fill="#FFEAE5" opacity="1.000000" stroke="none" 
	d="
M61.038277,51.885254 
	C60.216282,51.935215 59.394291,51.985176 58.288334,52.015266 
	C57.583019,51.770153 57.128769,51.308647 56.746197,51.361916 
	C55.337315,51.558090 53.952183,51.924828 52.295555,51.776024 
	C52.356838,50.530491 52.680679,49.736340 53.004517,48.942188 
	C54.570789,45.126854 57.583614,46.694004 60.748932,47.222218 
	C61.515846,47.644577 61.789555,47.838123 62.021778,48.281395 
	C61.973751,48.699764 61.967213,48.868404 61.981480,49.031761 
	C62.002285,49.026478 61.998848,48.985188 61.699997,49.135620 
	C61.280186,50.152451 61.159233,51.018852 61.038277,51.885254 
z"/>
<path fill="#FDF7C5" opacity="1.000000" stroke="none" 
	d="
M45.017029,30.861443 
	C42.598320,30.025450 40.299805,28.921314 37.497395,27.575121 
	C37.215126,29.693752 37.007339,31.253321 36.601990,33.161301 
	C36.603249,30.267357 36.802082,27.025000 37.048134,23.359776 
	C39.477715,24.286303 41.860077,25.635693 44.747314,27.289324 
	C45.522457,27.882545 45.792717,28.171526 46.062981,28.460506 
	C45.754395,29.171438 45.445812,29.882370 45.017029,30.861443 
z"/>
<path fill="#FEE5D5" opacity="1.000000" stroke="none" 
	d="
M27.949230,25.897797 
	C25.040203,24.425274 22.178082,22.669149 19.127182,20.652084 
	C18.944317,19.877487 18.950228,19.363832 19.223238,18.452457 
	C19.663145,18.049582 19.835955,18.044420 20.136484,18.272659 
	C20.752506,18.700668 21.240810,18.895281 21.881100,19.338863 
	C22.207325,19.674191 22.381561,19.760548 22.695141,20.086338 
	C23.795719,20.918802 24.756954,21.511837 25.872618,22.329521 
	C26.357817,22.684637 26.688585,22.815105 27.136635,23.151192 
	C27.459919,23.599741 27.699739,23.802717 27.986538,24.234486 
	C28.010450,24.682289 28.021204,24.861347 28.031956,25.040403 
	C28.020014,25.231667 28.008074,25.422932 27.949230,25.897797 
z"/>
<path fill="#FEE1DA" opacity="1.000000" stroke="none" 
	d="
M110.872581,46.082703 
	C111.061363,46.054840 111.250145,46.026978 111.718140,45.933281 
	C112.584877,46.259201 113.172409,46.650959 114.107269,47.487389 
	C114.549324,49.643085 114.644028,51.354111 114.738739,53.065140 
	C114.330460,53.043320 113.922173,53.021500 113.254227,52.603271 
	C112.917732,51.132915 112.840904,50.058968 112.764076,48.985020 
	C112.545746,48.998196 112.327408,49.011372 112.109077,49.024548 
	C112.109077,50.331722 112.109077,51.638897 112.109077,52.946072 
	C111.910706,52.950832 111.712326,52.955593 111.244843,52.524353 
	C110.941345,50.086472 110.906960,48.084587 110.872581,46.082703 
z"/>
<path fill="#E7963A" opacity="1.000000" stroke="none" 
	d="
M34.313515,21.263016 
	C33.709328,17.493744 33.385944,13.686551 33.144371,9.425159 
	C33.702114,12.528137 34.178047,16.085314 34.925983,20.150993 
	C35.197990,20.659498 35.155293,21.144712 35.155293,21.144712 
	C34.968300,21.171505 34.781311,21.198299 34.313515,21.263016 
z"/>
<path fill="#E6973A" opacity="1.000000" stroke="none" 
	d="
M42.855473,7.059402 
	C41.757904,6.698251 40.660336,6.337101 39.208679,5.953378 
	C39.496395,5.207804 40.138195,4.484803 40.937744,3.514846 
	C41.522541,3.195561 41.949589,3.123235 42.823204,3.102747 
	C43.269775,3.154586 43.539505,3.165931 43.539505,3.165931 
	C43.539505,3.165931 43.741467,3.199958 43.819206,3.133623 
	C43.856121,3.488507 43.815292,3.909726 43.551491,4.859469 
	C43.170837,5.945130 43.013153,6.502266 42.855473,7.059402 
z"/>
<path fill="#BD807E" opacity="1.000000" stroke="none" 
	d="
M72.027626,48.961781 
	C72.027626,48.961781 71.968933,48.491917 71.989250,48.256062 
	C73.066765,48.012753 74.123955,48.005299 75.617691,48.420895 
	C76.023560,50.522778 75.992897,52.201611 75.962227,53.880447 
	C75.491463,53.668018 75.020699,53.455589 73.959496,53.129276 
	C72.919838,52.990501 72.470627,52.965614 72.021408,52.940727 
	C72.021408,52.940727 71.980423,52.496288 72.261963,52.232414 
	C72.710457,51.930706 72.877403,51.892864 73.389854,51.886242 
	C74.108910,51.328983 74.482460,50.740505 74.856010,50.152031 
	C74.248589,49.816673 73.641167,49.481316 72.783188,49.094635 
	C72.364288,49.016136 72.195953,48.988960 72.027626,48.961781 
z"/>
<path fill="#C87D78" opacity="1.000000" stroke="none" 
	d="
M61.399960,51.821053 
	C61.159233,51.018852 61.280186,50.152451 61.853485,49.404015 
	C62.963837,49.606575 63.621853,49.691181 64.279869,49.775784 
	C64.295662,49.529537 64.311455,49.283291 64.327255,49.037045 
	C63.538391,49.037045 62.749535,49.037045 61.960674,49.037045 
	C61.967213,48.868404 61.973751,48.699764 62.391403,48.262589 
	C63.536945,47.927986 64.271378,47.861919 65.005806,47.795853 
	C65.005806,47.795853 65.481071,47.927338 65.724243,47.967457 
	C66.845444,51.814888 63.254059,50.608604 61.399960,51.821053 
z"/>
<path fill="#FFE2E4" opacity="1.000000" stroke="none" 
	d="
M75.973114,54.162643 
	C75.992897,52.201611 76.023560,50.522778 76.014328,48.424545 
	C75.974426,48.005146 76.425041,47.967014 76.620003,48.305038 
	C77.148186,49.446766 77.481407,50.250477 77.858673,51.409576 
	C77.945908,52.478371 77.989090,53.191780 78.032280,53.905186 
	C77.559959,54.252239 77.087631,54.599297 76.308113,54.977879 
	C75.995277,54.821220 75.989647,54.633034 75.973114,54.162643 
z"/>
<path fill="#C2767E" opacity="1.000000" stroke="none" 
	d="
M115.057007,53.053955 
	C114.644028,51.354111 114.549324,49.643085 114.454628,47.576962 
	C114.665161,47.007153 114.807487,46.754078 114.947052,46.252380 
	C115.389297,46.511520 115.766106,46.980923 116.321198,47.729733 
	C116.124756,49.687019 115.750015,51.364895 115.057007,53.053955 
z"/>
<path fill="#FDEBB6" opacity="1.000000" stroke="none" 
	d="
M35.366444,21.319288 
	C35.155293,21.144712 35.197990,20.659498 35.254353,20.423119 
	C36.642578,19.793621 37.974445,19.400505 39.663208,18.986275 
	C39.156914,20.087400 38.293724,21.209637 37.284149,22.615757 
	C36.617706,22.431046 36.097652,21.962456 35.366444,21.319288 
z"/>
<path fill="#FEF0F0" opacity="1.000000" stroke="none" 
	d="
M64.929382,47.474304 
	C64.271378,47.861919 63.536945,47.927986 62.432892,48.012859 
	C61.789555,47.838123 61.515846,47.644577 61.120728,47.227921 
	C62.283863,47.054123 63.568405,47.103439 64.929382,47.474304 
z"/>
<path fill="#E3938B" opacity="1.000000" stroke="none" 
	d="
M77.814621,51.054192 
	C77.481407,50.250477 77.148186,49.446766 76.846115,48.303612 
	C78.170433,48.766216 79.463608,49.568264 80.675346,50.698029 
	C80.593910,51.025745 80.208527,51.071827 79.810501,51.042702 
	C78.879860,51.027115 78.347237,51.040653 77.814621,51.054192 
z"/>
<path fill="#FDEBB6" opacity="1.000000" stroke="none" 
	d="
M43.929054,17.920610 
	C42.829277,18.387232 41.729504,18.853851 40.295506,19.166317 
	C40.460560,18.354261 40.959839,17.696363 41.910889,16.792290 
	C42.612087,16.395016 42.809353,16.192978 43.177044,15.939251 
	C43.399624,15.938504 43.840000,15.873402 43.840000,15.873402 
	C43.874367,16.076477 43.908737,16.279554 43.972389,16.996733 
	C44.001667,17.510832 43.929054,17.920610 43.929054,17.920610 
z"/>
<path fill="#FFD0CE" opacity="1.000000" stroke="none" 
	d="
M52.631577,48.955967 
	C52.680679,49.736340 52.356838,50.530491 51.995819,51.643703 
	C51.531990,51.967243 51.105335,51.971725 50.350929,51.604233 
	C50.022446,50.493042 50.021709,49.753819 50.020973,49.014595 
	C50.766861,48.999645 51.512753,48.984695 52.631577,48.955967 
z"/>
<path fill="#FDEFD0" opacity="1.000000" stroke="none" 
	d="
M48.280766,27.234980 
	C49.304142,26.846058 50.327522,26.457136 51.680031,26.042217 
	C52.018429,26.183008 52.027699,26.349798 52.046104,26.766659 
	C51.258743,27.640280 50.462246,28.263830 49.384857,29.021919 
	C48.994240,28.874603 48.838448,28.621058 48.438248,28.030581 
	C48.239906,27.665342 48.280766,27.234980 48.280766,27.234980 
z"/>
<path fill="#E6973A" opacity="1.000000" stroke="none" 
	d="
M42.954464,15.939999 
	C42.809353,16.192978 42.612087,16.395016 42.153961,16.589560 
	C42.262932,15.150946 42.580601,13.668883 43.205486,12.065630 
	C43.553036,12.666983 43.593376,13.389526 43.393028,14.683784 
	C43.086376,15.483666 43.020420,15.711833 42.954464,15.939999 
z"/>
<path fill="#FFEAE5" opacity="1.000000" stroke="none" 
	d="
M49.685490,49.059456 
	C50.021709,49.753819 50.022446,50.493042 50.030548,51.601280 
	C47.778419,51.502266 47.405949,50.581306 49.685490,49.059456 
z"/>
<path fill="#FFECEC" opacity="1.000000" stroke="none" 
	d="
M31.871410,30.892151 
	C31.399460,31.430277 30.932659,31.604774 30.239433,31.531305 
	C30.013296,30.602806 30.013582,29.922276 30.013868,29.241743 
	C30.013868,29.241743 30.272022,28.932442 30.469166,28.892078 
	C31.069725,29.410650 31.473145,29.969585 31.871410,30.892151 
z"/>
<path fill="#C98080" opacity="1.000000" stroke="none" 
	d="
M77.858673,51.409576 
	C78.347237,51.040653 78.879860,51.027115 79.776741,51.365814 
	C80.104591,52.150192 80.068176,52.582333 80.031754,53.014477 
	C79.548965,53.285728 79.066162,53.556980 78.307823,53.866707 
	C77.989090,53.191780 77.945908,52.478371 77.858673,51.409576 
z"/>
<path fill="#FEEEEC" opacity="1.000000" stroke="none" 
	d="
M80.320740,52.978897 
	C80.068176,52.582333 80.104591,52.150192 80.174767,51.394936 
	C80.208527,51.071827 80.593910,51.025745 80.786972,51.006210 
	C80.856598,51.638893 80.733162,52.291103 80.320740,52.978897 
z"/>
<path fill="#E3BD53" opacity="1.000000" stroke="none" 
	d="
M47.866253,27.165337 
	C48.280766,27.234980 48.239906,27.665342 48.272980,27.879406 
	C47.806366,28.170460 47.306675,28.247448 46.434982,28.392471 
	C45.792717,28.171526 45.522457,27.882545 45.096783,27.342571 
	C45.778160,27.092949 46.614948,27.094322 47.866253,27.165337 
z"/>
<path fill="#E0B69D" opacity="1.000000" stroke="none" 
	d="
M28.347218,25.029915 
	C28.021204,24.861347 28.010450,24.682289 27.966303,24.095839 
	C27.932907,23.688444 28.039330,23.428741 28.211233,23.509594 
	C28.684141,23.476025 28.774233,23.269283 28.761864,22.934292 
	C28.870317,22.898365 29.094284,22.943657 29.094284,22.943657 
	C29.359951,23.156883 29.625618,23.370111 30.024605,23.806622 
	C29.659441,24.359745 29.160959,24.689587 28.347218,25.029915 
z"/>
<path fill="#D68785" opacity="1.000000" stroke="none" 
	d="
M85.034973,50.326622 
	C85.922562,50.211021 86.793831,50.295578 87.569916,50.733147 
	C87.474724,51.086155 87.014816,51.242195 87.014816,51.242195 
	C86.574104,51.164284 86.133392,51.086372 85.359268,50.968407 
	C85.025864,50.928356 85.018661,50.526783 85.034973,50.326622 
z"/>
<path fill="#F2CB5D" opacity="1.000000" stroke="none" 
	d="
M44.219231,17.945955 
	C43.929054,17.920610 44.001667,17.510832 44.010605,17.303310 
	C44.475357,17.085781 44.931171,17.075777 45.714916,17.163513 
	C45.531700,17.497936 45.020554,17.734617 44.219231,17.945955 
z"/>
<path fill="#E4B376" opacity="1.000000" stroke="none" 
	d="
M43.051872,7.102855 
	C43.013153,6.502266 43.170837,5.945130 43.525291,5.176554 
	C43.776619,5.462681 43.831177,5.960248 43.767387,6.819575 
	C43.649040,7.181336 43.248272,7.146309 43.051872,7.102855 
z"/>
<path fill="#E4B376" opacity="1.000000" stroke="none" 
	d="
M43.177044,15.939251 
	C43.020420,15.711833 43.086376,15.483666 43.347328,14.954842 
	C43.727047,14.885730 43.826580,15.149430 43.840462,15.659344 
	C43.840000,15.873402 43.399624,15.938504 43.177044,15.939251 
z"/>
<path fill="#FFE6E2" opacity="1.000000" stroke="none" 
	d="
M67.923775,47.832760 
	C67.842796,47.999332 67.664513,47.999237 67.218193,47.996185 
	C67.242271,47.884190 67.534370,47.775143 67.923775,47.832760 
z"/>
<path fill="#E27535" opacity="1.000000" stroke="none" 
	d="
M20.008766,18.039259 
	C19.835955,18.044420 19.663145,18.049582 19.231337,18.067825 
	C18.912888,17.923349 18.853439,17.765787 18.709667,17.370247 
	C18.625343,17.132271 18.964354,17.099112 19.296278,17.194084 
	C19.830523,17.500769 19.957378,17.750837 20.008766,18.039259 
z"/>
<path fill="#D15045" opacity="1.000000" stroke="none" 
	d="
M15.729595,20.999296 
	C15.792432,21.229843 15.585286,21.501543 15.132616,21.861099 
	C15.077931,21.646122 15.268772,21.343285 15.729595,20.999296 
z"/>
<path fill="#FEE5D5" opacity="1.000000" stroke="none" 
	d="
M16.979670,20.016417 
	C17.286716,19.778812 17.539230,19.661354 17.868935,19.702118 
	C17.946125,19.860340 18.073639,20.109085 17.792080,20.124111 
	C17.341936,20.222137 17.173349,20.305141 17.004763,20.388144 
	C17.004763,20.388144 16.925137,20.136560 16.979670,20.016417 
z"/>
<path fill="#FFE2DC" opacity="1.000000" stroke="none" 
	d="
M29.660892,29.238472 
	C30.013582,29.922276 30.013296,30.602806 30.004238,31.623688 
	C26.551783,34.257744 23.108099,36.551453 19.353928,39.018074 
	C19.043442,39.190987 18.592117,39.077095 18.359846,39.063217 
	C17.761852,38.574375 17.396128,38.099411 17.011108,37.309776 
	C21.097179,34.408470 25.202547,31.821835 29.660892,29.238472 
z"/>
<path fill="#F8F6F6" opacity="1.000000" stroke="none" 
	d="
M5.090201,32.271999 
	C5.971749,32.398304 6.895947,32.881947 7.965020,33.661110 
	C7.117547,33.514202 6.125199,33.071770 5.090201,32.271999 
z"/>
<path fill="#F07123" opacity="1.000000" stroke="none" 
	d="
M20.136484,18.272659 
	C19.957378,17.750837 19.830523,17.500769 19.463619,17.162397 
	C19.214382,13.341428 19.129728,9.647115 19.349358,5.459710 
	C20.393877,4.661557 21.134113,4.356496 22.135374,4.080708 
	C22.568699,4.141201 22.740999,4.172421 22.913298,4.203641 
	C24.192156,5.245900 25.471016,6.288158 26.982784,7.861539 
	C27.495991,8.587948 27.776289,8.783236 28.056587,8.978521 
	C28.056587,8.978521 27.999874,8.996483 28.001945,9.431095 
	C28.276987,13.571702 28.549961,17.277695 28.822933,20.983688 
	C28.875463,21.420731 28.927992,21.857775 29.037403,22.619236 
	C29.094284,22.943657 28.870317,22.898365 28.650524,22.998878 
	C28.289824,23.196768 28.159355,23.306551 28.039330,23.428741 
	C28.039330,23.428741 27.932907,23.688444 27.953142,23.827091 
	C27.699739,23.802717 27.459919,23.599741 26.984219,22.925137 
	C26.382410,22.363932 26.050299,22.234402 25.718187,22.104872 
	C24.756954,21.511837 23.795719,20.918802 22.727184,19.912914 
	C22.322964,19.363337 22.026039,19.226614 21.729115,19.089893 
	C21.240810,18.895281 20.752506,18.700668 20.136484,18.272659 
z"/>
<path fill="#DF7635" opacity="1.000000" stroke="none" 
	d="
M28.894928,20.529510 
	C28.549961,17.277695 28.276987,13.571702 28.017509,9.405748 
	C28.031006,8.945789 28.453312,8.995756 28.663013,9.031250 
	C28.904116,12.736274 28.935518,16.405804 28.894928,20.529510 
z"/>
<path fill="#E27535" opacity="1.000000" stroke="none" 
	d="
M21.874352,4.051435 
	C21.134113,4.356496 20.393877,4.661557 19.355572,5.001444 
	C19.335814,4.446174 19.614122,3.856079 20.003366,2.956849 
	C20.465096,2.763277 20.815893,2.878839 21.483887,3.285205 
	C21.801086,3.576008 21.874352,4.051435 21.874352,4.051435 
z"/>
<path fill="#FFEDDC" opacity="1.000000" stroke="none" 
	d="
M22.135374,4.080708 
	C21.874352,4.051435 21.801086,3.576008 21.755770,3.339709 
	C22.045654,3.285423 22.380856,3.467437 22.814678,3.926545 
	C22.740999,4.172421 22.568699,4.141201 22.135374,4.080708 
z"/>
<path fill="#DF7635" opacity="1.000000" stroke="none" 
	d="
M27.975817,8.724392 
	C27.776289,8.783236 27.495991,8.587948 27.116856,8.150766 
	C27.310362,8.096002 27.602705,8.283132 27.975817,8.724392 
z"/>
<path fill="#D9A7A6" opacity="1.000000" stroke="none" 
	d="
M125.856361,53.911110 
	C124.706596,53.814133 123.556831,53.717152 122.239861,53.055656 
	C122.113243,52.305008 122.153824,52.118874 122.566055,51.951691 
	C123.935753,51.996506 124.933784,52.022369 125.943069,52.359623 
	C125.921661,53.084377 125.889015,53.497746 125.856361,53.911110 
z"/>
<path fill="#C6948C" opacity="1.000000" stroke="none" 
	d="
M119.870338,52.926643 
	C119.257141,52.177258 118.643944,51.427872 118.081200,50.128143 
	C118.131645,49.577805 118.284454,49.132519 118.556061,49.103558 
	C119.192764,49.068623 119.557869,49.062649 119.922966,49.056675 
	C119.922966,49.056675 120.023636,49.018967 120.024384,49.382950 
	C119.973534,50.806835 119.921936,51.866741 119.870338,52.926643 
z"/>
<path fill="#F29D9E" opacity="1.000000" stroke="none" 
	d="
M110.647888,46.089588 
	C110.906960,48.084587 110.941345,50.086472 110.947296,52.516434 
	C110.918869,52.944511 110.444206,52.932384 110.217560,52.470795 
	C109.988014,50.067482 109.985115,48.125751 109.982224,46.184025 
	C109.982216,46.184025 110.423203,46.096474 110.647888,46.089588 
z"/>
<path fill="#E28F92" opacity="1.000000" stroke="none" 
	d="
M109.682892,46.307358 
	C109.985115,48.125751 109.988014,50.067482 109.984703,52.424522 
	C109.978493,52.839840 109.539406,52.943329 109.279427,52.548218 
	C108.972389,51.092651 108.925323,50.032196 108.878265,48.971737 
	C109.046700,48.124725 109.215126,47.277710 109.682892,46.307358 
z"/>
<path fill="#FEE3E2" opacity="1.000000" stroke="none" 
	d="
M126.172119,53.916504 
	C125.889015,53.497746 125.921661,53.084377 125.993340,52.133232 
	C126.032372,51.595451 126.173347,51.154610 126.396652,51.232056 
	C127.025620,51.550037 127.431267,51.790573 127.889107,52.266727 
	C127.941292,52.502346 128.007507,52.980442 128.007507,52.980442 
	C127.500969,53.294262 126.994423,53.608078 126.172119,53.916504 
z"/>
<path fill="#A96961" opacity="1.000000" stroke="none" 
	d="
M112.307281,52.965458 
	C112.109077,51.638897 112.109077,50.331722 112.109077,49.024548 
	C112.327408,49.011372 112.545746,48.998196 112.764076,48.985020 
	C112.840904,50.058968 112.917732,51.132915 112.948479,52.579155 
	C112.902397,52.951454 112.505493,52.984844 112.307281,52.965458 
z"/>
<path fill="#B47671" opacity="1.000000" stroke="none" 
	d="
M128.250458,53.006027 
	C128.007507,52.980442 127.941292,52.502346 127.962891,51.904533 
	C128.018829,50.570141 128.053146,49.833569 128.087479,49.096992 
	C128.416977,49.223576 128.746475,49.350159 129.070511,50.034050 
	C129.069214,51.032841 129.073380,51.474323 129.046997,52.174309 
	C129.002808,52.605816 128.989136,52.778812 128.975479,52.951813 
	C128.975479,52.951813 128.493423,53.031612 128.250458,53.006027 
z"/>
<path fill="#FFDADC" opacity="1.000000" stroke="none" 
	d="
M108.626976,48.994164 
	C108.925323,50.032196 108.972389,51.092651 109.053871,52.547695 
	C109.088295,52.942280 108.622719,53.012447 108.302628,52.983299 
	C107.982529,52.954147 107.799179,52.848774 107.872528,52.475807 
	C107.921814,51.091049 107.897743,50.079250 107.873672,49.067455 
	C108.041023,49.050495 108.208359,49.033539 108.626976,48.994164 
z"/>
<path fill="#FFE2DE" opacity="1.000000" stroke="none" 
	d="
M120.200218,52.934128 
	C119.921936,51.866741 119.973534,50.806835 120.065765,49.348640 
	C120.106384,48.950352 120.575661,48.988873 120.794785,49.393410 
	C121.072197,50.832310 121.130486,51.866665 121.188782,52.901024 
	C120.969215,52.914555 120.749657,52.928082 120.200218,52.934128 
z"/>
<path fill="#CA6C6E" opacity="1.000000" stroke="none" 
	d="
M121.391586,52.933990 
	C121.130486,51.866665 121.072197,50.832310 121.029724,49.408630 
	C121.386276,49.097515 121.727005,49.175720 122.140778,49.802048 
	C122.196533,50.610306 122.179245,50.870438 122.140999,51.332287 
	C122.120041,51.534004 122.194397,51.932739 122.194397,51.932739 
	C122.153824,52.118874 122.113243,52.305008 122.033905,52.774490 
	C121.995148,53.057842 121.594391,52.966957 121.391586,52.933990 
z"/>
<path fill="#D89F9B" opacity="1.000000" stroke="none" 
	d="
M129.347458,53.010689 
	C128.989136,52.778812 129.002808,52.605816 129.351654,52.208916 
	C130.094406,51.966133 130.501984,51.947247 131.150116,51.941139 
	C131.390671,51.953918 131.872406,51.946323 131.872406,51.946323 
	C131.890488,52.126808 131.908554,52.307297 131.948257,52.759094 
	C131.219742,53.043457 130.469589,53.056511 129.347458,53.010689 
z"/>
<path fill="#D99697" opacity="1.000000" stroke="none" 
	d="
M107.056572,53.304031 
	C106.634460,53.282124 106.212341,53.260216 105.235031,53.196098 
	C104.512146,53.142433 104.344475,53.130974 104.139481,52.812378 
	C104.110130,52.299416 104.118126,52.093590 104.468872,51.932480 
	C105.503357,51.952862 106.195091,51.928528 106.940155,52.119400 
	C106.993500,52.334602 107.017792,52.777374 107.031204,52.908768 
	C107.044617,53.040157 107.056572,53.304031 107.056572,53.304031 
z"/>
<path fill="#FFE0DE" opacity="1.000000" stroke="none" 
	d="
M118.284454,49.132519 
	C118.284454,49.132519 118.131645,49.577805 118.028992,49.789795 
	C117.594490,49.554333 117.262642,49.106884 116.868668,48.377533 
	C117.024651,48.080906 117.242775,48.066181 117.795761,48.331009 
	C118.181892,48.784546 118.233170,48.958530 118.284454,49.132519 
z"/>
<path fill="#F8CECE" opacity="1.000000" stroke="none" 
	d="
M108.069290,53.014584 
	C107.874771,53.225086 107.593475,53.375153 107.184372,53.414623 
	C107.056572,53.304031 107.044617,53.040157 107.225082,52.943615 
	C107.405548,52.847073 107.799179,52.848774 107.799179,52.848774 
	C107.799179,52.848774 107.982529,52.954147 108.069290,53.014584 
z"/>
<path fill="#F8CECE" opacity="1.000000" stroke="none" 
	d="
M104.176811,53.119514 
	C104.344475,53.130974 104.512146,53.142433 104.920242,53.234859 
	C105.160660,53.315826 105.097992,53.701447 105.070152,53.895733 
	C105.042313,54.090019 104.624321,54.048592 104.366653,53.813972 
	C104.108994,53.579357 104.176811,53.119514 104.176811,53.119514 
z"/>
<path fill="#FFE2E4" opacity="1.000000" stroke="none" 
	d="
M72.049713,53.234035 
	C72.470627,52.965614 72.919838,52.990501 73.696152,53.099560 
	C73.664001,53.639309 73.304749,54.094883 72.945503,54.550461 
	C72.656342,54.209419 72.367188,53.868382 72.049713,53.234035 
z"/>
<path fill="#FFCBC3" opacity="1.000000" stroke="none" 
	d="
M72.015320,49.347763 
	C72.195953,48.988960 72.364288,49.016136 72.768387,49.432976 
	C73.017555,50.500095 73.030952,51.177559 73.044350,51.855022 
	C72.877403,51.892864 72.710457,51.930706 72.290970,52.011147 
	C72.026627,51.280415 72.014824,50.507076 72.015320,49.347763 
z"/>
<path fill="#FFDFDD" opacity="1.000000" stroke="none" 
	d="
M87.157639,51.472424 
	C87.014816,51.242195 87.474724,51.086155 87.712341,51.036758 
	C88.989937,50.988213 90.029922,50.989067 91.519150,51.302185 
	C92.024475,52.046516 92.080551,52.478592 92.136627,52.910667 
	C91.354706,52.942631 90.572792,52.974594 89.399780,53.011662 
	C88.439278,52.578728 87.869873,52.140690 87.157639,51.472424 
z"/>
<path fill="#D5A4A2" opacity="1.000000" stroke="none" 
	d="
M100.258041,53.014393 
	C100.547707,51.801003 101.079269,50.642883 101.814339,50.091858 
	C101.670990,51.534447 101.324135,52.369938 100.977272,53.205429 
	C100.977272,53.205429 100.499947,53.069664 100.258041,53.014393 
z"/>
<path fill="#FDE7E5" opacity="1.000000" stroke="none" 
	d="
M101.033195,53.492802 
	C101.324135,52.369938 101.670990,51.534447 102.053223,50.343750 
	C102.088593,49.988548 102.455215,49.989452 102.705353,50.403618 
	C102.933334,52.214176 102.911179,53.610565 102.889023,55.006954 
	C102.289055,54.598026 101.689087,54.189098 101.033195,53.492802 
z"/>
<path fill="#A95C58" opacity="1.000000" stroke="none" 
	d="
M102.977028,55.183205 
	C102.911179,53.610565 102.933334,52.214176 102.888664,50.403381 
	C103.024391,49.704884 103.226952,49.420788 103.734222,49.436401 
	C104.067986,50.453331 104.097054,51.170547 104.126122,51.887764 
	C104.118126,52.093590 104.110130,52.299416 104.139481,52.812378 
	C104.176811,53.119514 104.108994,53.579357 104.156754,53.806885 
	C104.009499,54.539978 103.814476,55.045547 103.367500,55.650661 
	C103.115555,55.750206 103.065033,55.359455 102.977028,55.183205 
z"/>
<path fill="#E68B8D" opacity="1.000000" stroke="none" 
	d="
M92.345474,52.924454 
	C92.080551,52.478592 92.024475,52.046516 91.908676,51.292595 
	C92.053993,50.582741 92.259026,50.194729 92.464066,49.806717 
	C92.651596,50.623959 92.839134,51.441200 92.999557,52.588531 
	C92.972443,52.918629 92.554314,52.938236 92.345474,52.924454 
z"/>
<path fill="#E4B376" opacity="1.000000" stroke="none" 
	d="
M43.605167,2.988901 
	C43.539505,3.165931 43.269775,3.154586 43.147999,3.096620 
	C43.241093,2.963060 43.455959,2.887465 43.605167,2.988901 
z"/>
<path fill="#F5B6AF" opacity="1.000000" stroke="none" 
	d="
M131.910141,51.677166 
	C131.872406,51.946323 131.390671,51.953918 131.171921,51.602036 
	C130.851395,50.810276 130.749619,50.370392 130.647842,49.930511 
	C130.647842,49.930511 130.969162,49.928745 131.119263,49.990051 
	C131.495544,50.503571 131.721710,50.955788 131.910141,51.677166 
z"/>
<path fill="#D15045" opacity="1.000000" stroke="none" 
	d="
M17.105783,20.511980 
	C17.173349,20.305141 17.341936,20.222137 17.764210,20.261066 
	C18.017899,20.382996 17.660416,20.680367 17.660416,20.680367 
	C17.660416,20.680367 17.206804,20.635817 17.105783,20.511980 
z"/>
<path fill="#FFE2DC" opacity="1.000000" stroke="none" 
	d="
M104.468872,51.932480 
	C104.097054,51.170547 104.067986,50.453331 103.993187,49.378063 
	C104.706970,49.008461 105.466492,48.996910 106.552719,49.353149 
	C106.881889,50.448689 106.884354,51.176441 106.886818,51.904194 
	C106.195091,51.928528 105.503357,51.952862 104.468872,51.932480 
z"/>
<path fill="#AC6564" opacity="1.000000" stroke="none" 
	d="
M106.940155,52.119400 
	C106.884354,51.176441 106.881889,50.448689 106.931931,49.359104 
	C106.984451,48.997272 107.429634,49.025928 107.651657,49.046692 
	C107.897743,50.079250 107.921814,51.091049 107.872528,52.475807 
	C107.799179,52.848774 107.405548,52.847073 107.211670,52.812225 
	C107.017792,52.777374 106.993500,52.334602 106.940155,52.119400 
z"/>
<path fill="#F7F7F8" opacity="1.000000" stroke="none" 
	d="
M52.007729,33.231293 
	C52.846729,28.383438 56.422096,29.941551 58.697178,30.345806 
	C59.725231,30.528479 60.584110,33.507805 60.911606,35.327763 
	C61.333466,37.672138 61.141327,40.026070 57.664188,40.064053 
	C56.432518,40.077507 55.207493,40.699348 53.041225,41.306316 
	C52.663574,38.548115 52.329514,36.108303 52.007729,33.231293 
z"/>
<path fill="#FFBFBC" opacity="1.000000" stroke="none" 
	d="
M127.742523,49.072632 
	C128.053146,49.833569 128.018829,50.570141 127.910706,51.668915 
	C127.431267,51.790573 127.025620,51.550037 126.354599,51.194965 
	C126.089233,51.080429 126.008354,51.008011 126.045441,50.677475 
	C126.059853,49.904667 126.037186,49.462399 126.014519,49.020126 
	C126.475540,49.029507 126.936554,49.038891 127.742523,49.072632 
z"/>
<path fill="#FFEAE0" opacity="1.000000" stroke="none" 
	d="
M130.427765,49.948021 
	C130.749619,50.370392 130.851395,50.810276 130.931366,51.589256 
	C130.501984,51.947247 130.094406,51.966133 129.382202,51.950409 
	C129.073380,51.474323 129.069214,51.032841 129.191010,50.283150 
	C129.613937,49.975677 129.910843,49.972542 130.427765,49.948021 
z"/>
<path fill="#FFBCBB" opacity="1.000000" stroke="none" 
	d="
M122.566055,51.951691 
	C122.194397,51.932739 122.120041,51.534004 122.482086,51.283123 
	C123.073425,51.011608 123.302719,50.990978 123.532005,50.970345 
	C123.717621,50.815777 123.928329,50.764778 124.699837,50.916054 
	C125.493156,51.012508 125.750755,51.010258 126.008354,51.008011 
	C126.008354,51.008011 126.089233,51.080429 126.131287,51.117519 
	C126.173347,51.154610 126.032372,51.595451 125.982101,51.821842 
	C124.933784,52.022369 123.935753,51.996506 122.566055,51.951691 
z"/>
<path fill="#EE9491" opacity="1.000000" stroke="none" 
	d="
M126.045441,50.677475 
	C125.750755,51.010258 125.493156,51.012508 124.848526,50.992744 
	C124.752617,50.367016 125.043732,49.763294 125.674683,49.089851 
	C126.037186,49.462399 126.059853,49.904667 126.045441,50.677475 
z"/>
<path fill="#D5B4A8" opacity="1.000000" stroke="none" 
	d="
M118.556061,49.103558 
	C118.233170,48.958530 118.181892,48.784546 118.123581,48.339211 
	C118.651039,48.218235 119.185547,48.368622 119.821503,48.787842 
	C119.557869,49.062649 119.192764,49.068623 118.556061,49.103558 
z"/>
<path fill="#EE9491" opacity="1.000000" stroke="none" 
	d="
M123.420670,50.695957 
	C123.302719,50.990978 123.073425,51.011608 122.503044,51.081406 
	C122.179245,50.870438 122.196533,50.610306 122.341278,49.977646 
	C122.748932,49.877270 123.029129,50.149422 123.420670,50.695957 
z"/>
<path fill="#DF7635" opacity="1.000000" stroke="none" 
	d="
M25.872618,22.329521 
	C26.050299,22.234402 26.382410,22.363932 26.866938,22.719517 
	C26.688585,22.815105 26.357817,22.684637 25.872618,22.329521 
z"/>
<path fill="#E27535" opacity="1.000000" stroke="none" 
	d="
M21.881100,19.338863 
	C22.026039,19.226614 22.322964,19.363337 22.587843,19.673481 
	C22.381561,19.760548 22.207325,19.674191 21.881100,19.338863 
z"/>
<path fill="#FFE4E0" opacity="1.000000" stroke="none" 
	d="
M73.389854,51.886242 
	C73.030952,51.177559 73.017555,50.500095 73.018951,49.484295 
	C73.641167,49.481316 74.248589,49.816673 74.856010,50.152031 
	C74.482460,50.740505 74.108910,51.328983 73.389854,51.886242 
z"/>
<path fill="#FFD6D0" opacity="1.000000" stroke="none" 
	d="
M61.981480,49.031761 
	C62.749535,49.037045 63.538391,49.037045 64.327255,49.037045 
	C64.311455,49.283291 64.295662,49.529537 64.279869,49.775784 
	C63.621853,49.691181 62.963837,49.606575 62.152336,49.253578 
	C61.998848,48.985188 62.002285,49.026478 61.981480,49.031761 
z"/>
<path fill="#DF7635" opacity="1.000000" stroke="none" 
	d="
M28.211233,23.509594 
	C28.159355,23.306551 28.289824,23.196768 28.542068,23.034803 
	C28.774233,23.269283 28.684141,23.476025 28.211233,23.509594 
z"/>
</svg>